<svg xmlns="http://www.w3.org/2000/svg" viewBox="0 0 1200 800" width="1200" height="800" preserveAspectRatio="xMidYMid slice" role="img" aria-label="Барная стойка: латунь, тёмное стекло, настойки на угле"><title>Барная стойка: латунь, тёмное стекло, настойки на угле</title><defs><linearGradient id="l1" x1="0" y1="0" x2="0" y2="1"><stop offset="0" stop-color="#16130F" stop-opacity="1"/><stop offset="1" stop-color="#0C0A09" stop-opacity="1"/></linearGradient><radialGradient id="r2" cx="0.5" cy="0.5" r="0.5"><stop offset="0" stop-color="#D4A03C" stop-opacity="0.2"/><stop offset="0.45" stop-color="#D4A03C" stop-opacity="0.06999999999999999"/><stop offset="1" stop-color="#D4A03C" stop-opacity="0"/></radialGradient><linearGradient id="l3" x1="0" y1="0" x2="1" y2="0"><stop offset="0" stop-color="#D4A03C" stop-opacity="0"/><stop offset="0.25" stop-color="#D4A03C" stop-opacity="0.4"/><stop offset="0.75" stop-color="#D4A03C" stop-opacity="0.27999999999999997"/><stop offset="1" stop-color="#D4A03C" stop-opacity="0"/></linearGradient><linearGradient id="l4" x1="0" y1="0" x2="1" y2="0"><stop offset="0" stop-color="#D4A03C" stop-opacity="0"/><stop offset="0.25" stop-color="#D4A03C" stop-opacity="0.3"/><stop offset="0.75" stop-color="#D4A03C" stop-opacity="0.21"/><stop offset="1" stop-color="#D4A03C" stop-opacity="0"/></linearGradient><linearGradient id="l5" x1="0" y1="0" x2="0" y2="1"><stop offset="0" stop-color="#3A332C" stop-opacity="1"/><stop offset="0.45" stop-color="#241F1A" stop-opacity="1"/><stop offset="1" stop-color="#0C0A09" stop-opacity="1"/></linearGradient><linearGradient id="l6" x1="0" y1="0" x2="0" y2="1"><stop offset="0" stop-color="#D4A03C" stop-opacity="0.0"/><stop offset="0.5" stop-color="#D4A03C" stop-opacity="0.2804548799447539"/><stop offset="1" stop-color="#D4A03C" stop-opacity="0"/></linearGradient><linearGradient id="l7" x1="0" y1="0" x2="0" y2="1"><stop offset="0" stop-color="#3A332C" stop-opacity="1"/><stop offset="0.45" stop-color="#241F1A" stop-opacity="1"/><stop offset="1" stop-color="#0C0A09" stop-opacity="1"/></linearGradient><linearGradient id="l8" x1="0" y1="0" x2="0" y2="1"><stop offset="0" stop-color="#D4A03C" stop-opacity="0.0"/><stop offset="0.5" stop-color="#D4A03C" stop-opacity="0.3986991814989542"/><stop offset="1" stop-color="#D4A03C" stop-opacity="0"/></linearGradient><linearGradient id="l9" x1="0" y1="0" x2="0" y2="1"><stop offset="0" stop-color="#3A332C" stop-opacity="1"/><stop offset="0.45" stop-color="#241F1A" stop-opacity="1"/><stop offset="1" stop-color="#0C0A09" stop-opacity="1"/></linearGradient><linearGradient id="l10" x1="0" y1="0" x2="0" y2="1"><stop offset="0" stop-color="#D4A03C" stop-opacity="0.0"/><stop offset="0.5" stop-color="#D4A03C" stop-opacity="0.2710428713062881"/><stop offset="1" stop-color="#D4A03C" stop-opacity="0"/></linearGradient><linearGradient id="l11" x1="0" y1="0" x2="0" y2="1"><stop offset="0" stop-color="#3A332C" stop-opacity="1"/><stop offset="0.45" stop-color="#241F1A" stop-opacity="1"/><stop offset="1" stop-color="#0C0A09" stop-opacity="1"/></linearGradient><linearGradient id="l12" x1="0" y1="0" x2="0" y2="1"><stop offset="0" stop-color="#D4A03C" stop-opacity="0.0"/><stop offset="0.5" stop-color="#D4A03C" stop-opacity="0.31062108687126344"/><stop offset="1" stop-color="#D4A03C" stop-opacity="0"/></linearGradient><linearGradient id="l13" x1="0" y1="0" x2="0" y2="1"><stop offset="0" stop-color="#3A332C" stop-opacity="1"/><stop offset="0.45" stop-color="#241F1A" stop-opacity="1"/><stop offset="1" stop-color="#0C0A09" stop-opacity="1"/></linearGradient><linearGradient id="l14" x1="0" y1="0" x2="0" y2="1"><stop offset="0" stop-color="#D4A03C" stop-opacity="0.0"/><stop offset="0.5" stop-color="#D4A03C" stop-opacity="0.23325888164960143"/><stop offset="1" stop-color="#D4A03C" stop-opacity="0"/></linearGradient><linearGradient id="l15" x1="0" y1="0" x2="0" y2="1"><stop offset="0" stop-color="#3A332C" stop-opacity="1"/><stop offset="0.45" stop-color="#241F1A" stop-opacity="1"/><stop offset="1" stop-color="#0C0A09" stop-opacity="1"/></linearGradient><linearGradient id="l16" x1="0" y1="0" x2="0" y2="1"><stop offset="0" stop-color="#D4A03C" stop-opacity="0.0"/><stop offset="0.5" stop-color="#D4A03C" stop-opacity="0.3695661357593405"/><stop offset="1" stop-color="#D4A03C" stop-opacity="0"/></linearGradient><linearGradient id="l17" x1="0" y1="0" x2="0" y2="1"><stop offset="0" stop-color="#3A332C" stop-opacity="1"/><stop offset="0.45" stop-color="#241F1A" stop-opacity="1"/><stop offset="1" stop-color="#0C0A09" stop-opacity="1"/></linearGradient><linearGradient id="l18" x1="0" y1="0" x2="0" y2="1"><stop offset="0" stop-color="#D4A03C" stop-opacity="0.0"/><stop offset="0.5" stop-color="#D4A03C" stop-opacity="0.4306308416700604"/><stop offset="1" stop-color="#D4A03C" stop-opacity="0"/></linearGradient><linearGradient id="l19" x1="0" y1="0" x2="0" y2="1"><stop offset="0" stop-color="#3A332C" stop-opacity="1"/><stop offset="0.45" stop-color="#241F1A" stop-opacity="1"/><stop offset="1" stop-color="#0C0A09" stop-opacity="1"/></linearGradient><linearGradient id="l20" x1="0" y1="0" x2="0" y2="1"><stop offset="0" stop-color="#D4A03C" stop-opacity="0.0"/><stop offset="0.5" stop-color="#D4A03C" stop-opacity="0.4075129867870125"/><stop offset="1" stop-color="#D4A03C" stop-opacity="0"/></linearGradient><linearGradient id="l21" x1="0" y1="0" x2="0" y2="1"><stop offset="0" stop-color="#3A332C" stop-opacity="1"/><stop offset="0.45" stop-color="#241F1A" stop-opacity="1"/><stop offset="1" stop-color="#0C0A09" stop-opacity="1"/></linearGradient><linearGradient id="l22" x1="0" y1="0" x2="0" y2="1"><stop offset="0" stop-color="#D4A03C" stop-opacity="0.0"/><stop offset="0.5" stop-color="#D4A03C" stop-opacity="0.3807426031246258"/><stop offset="1" stop-color="#D4A03C" stop-opacity="0"/></linearGradient><linearGradient id="l23" x1="0" y1="0" x2="0" y2="1"><stop offset="0" stop-color="#3A332C" stop-opacity="1"/><stop offset="0.45" stop-color="#241F1A" stop-opacity="1"/><stop offset="1" stop-color="#0C0A09" stop-opacity="1"/></linearGradient><linearGradient id="l24" x1="0" y1="0" x2="0" y2="1"><stop offset="0" stop-color="#D4A03C" stop-opacity="0.0"/><stop offset="0.5" stop-color="#D4A03C" stop-opacity="0.2055712136883967"/><stop offset="1" stop-color="#D4A03C" stop-opacity="0"/></linearGradient><linearGradient id="l25" x1="0" y1="0" x2="0" y2="1"><stop offset="0" stop-color="#3A332C" stop-opacity="1"/><stop offset="0.45" stop-color="#241F1A" stop-opacity="1"/><stop offset="1" stop-color="#0C0A09" stop-opacity="1"/></linearGradient><linearGradient id="l26" x1="0" y1="0" x2="0" y2="1"><stop offset="0" stop-color="#D4A03C" stop-opacity="0.0"/><stop offset="0.5" stop-color="#D4A03C" stop-opacity="0.31883675129082373"/><stop offset="1" stop-color="#D4A03C" stop-opacity="0"/></linearGradient><linearGradient id="l27" x1="0" y1="1" x2="0" y2="0"><stop offset="0" stop-color="#D4A03C" stop-opacity="0.22"/><stop offset="1" stop-color="#D4A03C" stop-opacity="0"/></linearGradient><linearGradient id="l28" x1="0" y1="0" x2="0" y2="1"><stop offset="0" stop-color="#3A332C" stop-opacity="1"/><stop offset="0.45" stop-color="#241F1A" stop-opacity="1"/><stop offset="1" stop-color="#0C0A09" stop-opacity="1"/></linearGradient><linearGradient id="l29" x1="0" y1="0" x2="0" y2="1"><stop offset="0" stop-color="#D4A03C" stop-opacity="0.0"/><stop offset="0.5" stop-color="#D4A03C" stop-opacity="0.4233593889609057"/><stop offset="1" stop-color="#D4A03C" stop-opacity="0"/></linearGradient><linearGradient id="l30" x1="0" y1="0" x2="0" y2="1"><stop offset="0" stop-color="#3A332C" stop-opacity="1"/><stop offset="0.45" stop-color="#241F1A" stop-opacity="1"/><stop offset="1" stop-color="#0C0A09" stop-opacity="1"/></linearGradient><linearGradient id="l31" x1="0" y1="0" x2="0" y2="1"><stop offset="0" stop-color="#D4A03C" stop-opacity="0.0"/><stop offset="0.5" stop-color="#D4A03C" stop-opacity="0.3029849024465542"/><stop offset="1" stop-color="#D4A03C" stop-opacity="0"/></linearGradient><linearGradient id="l32" x1="0" y1="0" x2="0" y2="1"><stop offset="0" stop-color="#3A332C" stop-opacity="1"/><stop offset="0.45" stop-color="#241F1A" stop-opacity="1"/><stop offset="1" stop-color="#0C0A09" stop-opacity="1"/></linearGradient><linearGradient id="l33" x1="0" y1="0" x2="0" y2="1"><stop offset="0" stop-color="#D4A03C" stop-opacity="0.0"/><stop offset="0.5" stop-color="#D4A03C" stop-opacity="0.2660713854560306"/><stop offset="1" stop-color="#D4A03C" stop-opacity="0"/></linearGradient><linearGradient id="l34" x1="0" y1="0" x2="0" y2="1"><stop offset="0" stop-color="#3A332C" stop-opacity="1"/><stop offset="0.45" stop-color="#241F1A" stop-opacity="1"/><stop offset="1" stop-color="#0C0A09" stop-opacity="1"/></linearGradient><linearGradient id="l35" x1="0" y1="0" x2="0" y2="1"><stop offset="0" stop-color="#D4A03C" stop-opacity="0.0"/><stop offset="0.5" stop-color="#D4A03C" stop-opacity="0.3566584543715706"/><stop offset="1" stop-color="#D4A03C" stop-opacity="0"/></linearGradient><linearGradient id="l36" x1="0" y1="0" x2="0" y2="1"><stop offset="0" stop-color="#3A332C" stop-opacity="1"/><stop offset="0.45" stop-color="#241F1A" stop-opacity="1"/><stop offset="1" stop-color="#0C0A09" stop-opacity="1"/></linearGradient><linearGradient id="l37" x1="0" y1="0" x2="0" y2="1"><stop offset="0" stop-color="#D4A03C" stop-opacity="0.0"/><stop offset="0.5" stop-color="#D4A03C" stop-opacity="0.4016105134527611"/><stop offset="1" stop-color="#D4A03C" stop-opacity="0"/></linearGradient><linearGradient id="l38" x1="0" y1="0" x2="0" y2="1"><stop offset="0" stop-color="#3A332C" stop-opacity="1"/><stop offset="0.45" stop-color="#241F1A" stop-opacity="1"/><stop offset="1" stop-color="#0C0A09" stop-opacity="1"/></linearGradient><linearGradient id="l39" x1="0" y1="0" x2="0" y2="1"><stop offset="0" stop-color="#D4A03C" stop-opacity="0.0"/><stop offset="0.5" stop-color="#D4A03C" stop-opacity="0.40537607864623043"/><stop offset="1" stop-color="#D4A03C" stop-opacity="0"/></linearGradient><linearGradient id="l40" x1="0" y1="0" x2="0" y2="1"><stop offset="0" stop-color="#3A332C" stop-opacity="1"/><stop offset="0.45" stop-color="#241F1A" stop-opacity="1"/><stop offset="1" stop-color="#0C0A09" stop-opacity="1"/></linearGradient><linearGradient id="l41" x1="0" y1="0" x2="0" y2="1"><stop offset="0" stop-color="#D4A03C" stop-opacity="0.0"/><stop offset="0.5" stop-color="#D4A03C" stop-opacity="0.3237383530091469"/><stop offset="1" stop-color="#D4A03C" stop-opacity="0"/></linearGradient><linearGradient id="l42" x1="0" y1="0" x2="0" y2="1"><stop offset="0" stop-color="#3A332C" stop-opacity="1"/><stop offset="0.45" stop-color="#241F1A" stop-opacity="1"/><stop offset="1" stop-color="#0C0A09" stop-opacity="1"/></linearGradient><linearGradient id="l43" x1="0" y1="0" x2="0" y2="1"><stop offset="0" stop-color="#D4A03C" stop-opacity="0.0"/><stop offset="0.5" stop-color="#D4A03C" stop-opacity="0.2572464621809724"/><stop offset="1" stop-color="#D4A03C" stop-opacity="0"/></linearGradient><linearGradient id="l44" x1="0" y1="0" x2="0" y2="1"><stop offset="0" stop-color="#3A332C" stop-opacity="1"/><stop offset="0.45" stop-color="#241F1A" stop-opacity="1"/><stop offset="1" stop-color="#0C0A09" stop-opacity="1"/></linearGradient><linearGradient id="l45" x1="0" y1="0" x2="0" y2="1"><stop offset="0" stop-color="#D4A03C" stop-opacity="0.0"/><stop offset="0.5" stop-color="#D4A03C" stop-opacity="0.3256989862892314"/><stop offset="1" stop-color="#D4A03C" stop-opacity="0"/></linearGradient><linearGradient id="l46" x1="0" y1="1" x2="0" y2="0"><stop offset="0" stop-color="#D4A03C" stop-opacity="0.22"/><stop offset="1" stop-color="#D4A03C" stop-opacity="0"/></linearGradient><linearGradient id="l47" x1="0" y1="0" x2="0.3" y2="1"><stop offset="0" stop-color="#3A332C" stop-opacity="0.55"/><stop offset="0.6" stop-color="#241F1A" stop-opacity="0.8"/><stop offset="1" stop-color="#0C0A09" stop-opacity="0.9"/></linearGradient><linearGradient id="l48" x1="0" y1="0" x2="0" y2="1"><stop offset="0" stop-color="#D4A03C" stop-opacity="0.6"/><stop offset="1" stop-color="#8C2F14" stop-opacity="0.7"/></linearGradient><linearGradient id="l49" x1="0" y1="0" x2="0" y2="1"><stop offset="0" stop-color="#F5F1EA" stop-opacity="0.0"/><stop offset="0.5" stop-color="#F5F1EA" stop-opacity="0.42"/><stop offset="1" stop-color="#F5F1EA" stop-opacity="0"/></linearGradient><linearGradient id="l50" x1="0" y1="0" x2="0.3" y2="1"><stop offset="0" stop-color="#3A332C" stop-opacity="0.55"/><stop offset="0.6" stop-color="#241F1A" stop-opacity="0.8"/><stop offset="1" stop-color="#0C0A09" stop-opacity="0.9"/></linearGradient><linearGradient id="l51" x1="0" y1="0" x2="0" y2="1"><stop offset="0" stop-color="#8C2F14" stop-opacity="0.75"/><stop offset="1" stop-color="#0C0A09" stop-opacity="0.9"/></linearGradient><linearGradient id="l52" x1="0" y1="0" x2="0" y2="1"><stop offset="0" stop-color="#F5F1EA" stop-opacity="0.0"/><stop offset="0.5" stop-color="#F5F1EA" stop-opacity="0.42"/><stop offset="1" stop-color="#F5F1EA" stop-opacity="0"/></linearGradient><radialGradient id="r53" cx="0.5" cy="0.48" r="0.82"><stop offset="0.35" stop-color="#0C0A09" stop-opacity="0"/><stop offset="0.72" stop-color="#0C0A09" stop-opacity="0.41850000000000004"/><stop offset="1" stop-color="#0C0A09" stop-opacity="0.93"/></radialGradient><linearGradient id="l54" x1="0" y1="0" x2="0" y2="1"><stop offset="0" stop-color="#0C0A09" stop-opacity="0.55"/><stop offset="0.22" stop-color="#0C0A09" stop-opacity="0"/><stop offset="0.8" stop-color="#0C0A09" stop-opacity="0"/><stop offset="1" stop-color="#0C0A09" stop-opacity="0.75"/></linearGradient></defs><rect width="1200" height="800" fill="url(#l1)"/><ellipse cx="600.0" cy="240.0" rx="576.0" ry="272.0" fill="url(#r2)"/><rect y="272.0" width="1200" height="1.6" fill="url(#l3)"/><rect y="448.00000000000006" width="1200" height="1.6" fill="url(#l4)"/><path d="M115 181 L125 181 L125 212 L134 225 L134 272 L106 272 L106 225 L115 212 Z" fill="url(#l5)"/><rect x="107" y="225" width="1.6" height="44" fill="url(#l6)"/><path d="M210 157 L222 157 L222 196 L234 212 L234 272 L198 272 L198 212 L210 196 Z" fill="url(#l7)"/><rect x="199" y="212" width="1.6" height="55" fill="url(#l8)"/><path d="M307 137 L317 137 L317 183 L328 202 L328 272 L296 272 L296 202 L307 183 Z" fill="url(#l9)"/><rect x="297" y="202" width="1.6" height="65" fill="url(#l10)"/><path d="M403 147 L413 147 L413 190 L423 207 L423 272 L393 272 L393 207 L403 190 Z" fill="url(#l11)"/><rect x="394" y="207" width="1.6" height="60" fill="url(#l12)"/><path d="M497 192 L511 192 L511 219 L523 230 L523 272 L485 272 L485 230 L497 219 Z" fill="url(#l13)"/><rect x="486" y="230" width="1.6" height="39" fill="url(#l14)"/><path d="M595 164 L605 164 L605 201 L616 216 L616 272 L584 272 L584 216 L595 201 Z" fill="url(#l15)"/><rect x="585" y="216" width="1.6" height="52" fill="url(#l16)"/><path d="M691 162 L701 162 L701 199 L711 215 L711 272 L681 272 L681 215 L691 199 Z" fill="url(#l17)"/><rect x="682" y="215" width="1.6" height="53" fill="url(#l18)"/><path d="M787 146 L797 146 L797 189 L806 207 L806 272 L778 272 L778 207 L787 189 Z" fill="url(#l19)"/><rect x="779" y="207" width="1.6" height="60" fill="url(#l20)"/><path d="M883 180 L893 180 L893 211 L903 224 L903 272 L873 272 L873 224 L883 211 Z" fill="url(#l21)"/><rect x="874" y="224" width="1.6" height="44" fill="url(#l22)"/><path d="M976 147 L992 147 L992 190 L1006 207 L1006 272 L962 272 L962 207 L976 190 Z" fill="url(#l23)"/><rect x="963" y="207" width="1.6" height="60" fill="url(#l24)"/><path d="M1073 178 L1087 178 L1087 210 L1100 223 L1100 272 L1060 272 L1060 223 L1073 210 Z" fill="url(#l25)"/><rect x="1061" y="223" width="1.6" height="45" fill="url(#l26)"/><rect y="268.0" width="1200" height="4" fill="url(#l27)"/><path d="M147 331 L157 331 L157 371 L167 387 L167 448 L137 448 L137 387 L147 371 Z" fill="url(#l28)"/><rect x="138" y="387" width="1.6" height="56" fill="url(#l29)"/><path d="M258 372 L270 372 L270 398 L283 409 L283 448 L245 448 L245 409 L258 398 Z" fill="url(#l30)"/><rect x="246" y="409" width="1.6" height="36" fill="url(#l31)"/><path d="M369 347 L383 347 L383 381 L396 395 L396 448 L356 448 L356 395 L369 381 Z" fill="url(#l32)"/><rect x="357" y="395" width="1.6" height="49" fill="url(#l33)"/><path d="M481 363 L495 363 L495 392 L510 404 L510 448 L466 448 L466 404 L481 392 Z" fill="url(#l34)"/><rect x="467" y="404" width="1.6" height="41" fill="url(#l35)"/><path d="M595 336 L605 336 L605 374 L616 390 L616 448 L584 448 L584 390 L595 374 Z" fill="url(#l36)"/><rect x="585" y="390" width="1.6" height="54" fill="url(#l37)"/><path d="M704 331 L720 331 L720 371 L734 387 L734 448 L690 448 L690 387 L704 371 Z" fill="url(#l38)"/><rect x="691" y="387" width="1.6" height="56" fill="url(#l39)"/><path d="M818 351 L830 351 L830 384 L840 398 L840 448 L808 448 L808 398 L818 384 Z" fill="url(#l40)"/><rect x="809" y="398" width="1.6" height="46" fill="url(#l41)"/><path d="M929 372 L943 372 L943 398 L957 408 L957 448 L915 448 L915 408 L929 398 Z" fill="url(#l42)"/><rect x="916" y="408" width="1.6" height="37" fill="url(#l43)"/><path d="M1041 341 L1055 341 L1055 377 L1068 392 L1068 448 L1028 448 L1028 392 L1041 377 Z" fill="url(#l44)"/><rect x="1029" y="392" width="1.6" height="51" fill="url(#l45)"/><rect y="444.00000000000006" width="1200" height="4" fill="url(#l46)"/><g><path d="M264 512 L360 512 L350 752 L274 752 Z" fill="url(#l47)"/><path d="M268 620 L356 620 L350 752 L274 752 Z" fill="url(#l48)"/><rect x="262" y="512" width="4.3" height="149" fill="url(#l49)"/></g><g><path d="M828 480 L948 480 C945 611 910 638 902 643 L902 733 L942 752 L834 752 L874 733 L874 643 C866 638 831 611 828 480 Z" fill="url(#l50)"/><path d="M836 534 L940 534 C934 602 904 635 888 638 C872 635 842 602 836 534 Z" fill="url(#l51)"/><rect x="831" y="480" width="4.9" height="169" fill="url(#l52)"/></g><rect width="1200" height="800" fill="url(#r53)"/><rect width="1200" height="800" fill="url(#l54)"/></svg>