<svg xmlns="http://www.w3.org/2000/svg" viewBox="0 0 1200 1500" width="1200" height="1500" preserveAspectRatio="xMidYMid slice" role="img" aria-label="Фактура угольной корочки"><title>Фактура угольной корочки</title><defs><linearGradient id="l1" x1="0" y1="0" x2="0" y2="1"><stop offset="0" stop-color="#16130F" stop-opacity="1"/><stop offset="1" stop-color="#0C0A09" stop-opacity="1"/></linearGradient><radialGradient id="r2" cx="0.5" cy="0.5" r="0.5"><stop offset="0" stop-color="#8C2F14" stop-opacity="0.3"/><stop offset="0.45" stop-color="#8C2F14" stop-opacity="0.105"/><stop offset="1" stop-color="#8C2F14" stop-opacity="0"/></radialGradient><linearGradient id="l3" x1="0" y1="0" x2="1" y2="0"><stop offset="0" stop-color="#8C2F14" stop-opacity="0"/><stop offset="0.35" stop-color="#8C2F14" stop-opacity="0.1402223180467844"/><stop offset="0.7" stop-color="#8C2F14" stop-opacity="0.08413339082807063"/><stop offset="1" stop-color="#8C2F14" stop-opacity="0"/></linearGradient><linearGradient id="l4" x1="0" y1="0" x2="1" y2="0"><stop offset="0" stop-color="#E0552B" stop-opacity="0"/><stop offset="0.35" stop-color="#E0552B" stop-opacity="0.5324116303237787"/><stop offset="0.7" stop-color="#E0552B" stop-opacity="0.3194469781942672"/><stop offset="1" stop-color="#E0552B" stop-opacity="0"/></linearGradient><linearGradient id="l5" x1="0" y1="0" x2="1" y2="0"><stop offset="0" stop-color="#8C2F14" stop-opacity="0"/><stop offset="0.35" stop-color="#8C2F14" stop-opacity="0.19267985709276172"/><stop offset="0.7" stop-color="#8C2F14" stop-opacity="0.11560791425565703"/><stop offset="1" stop-color="#8C2F14" stop-opacity="0"/></linearGradient><linearGradient id="l6" x1="0" y1="0" x2="1" y2="0"><stop offset="0" stop-color="#8C2F14" stop-opacity="0"/><stop offset="0.35" stop-color="#8C2F14" stop-opacity="0.1029758226846265"/><stop offset="0.7" stop-color="#8C2F14" stop-opacity="0.0617854936107759"/><stop offset="1" stop-color="#8C2F14" stop-opacity="0"/></linearGradient><linearGradient id="l7" x1="0" y1="0" x2="1" y2="0"><stop offset="0" stop-color="#E0552B" stop-opacity="0"/><stop offset="0.35" stop-color="#E0552B" stop-opacity="0.5528462521371922"/><stop offset="0.7" stop-color="#E0552B" stop-opacity="0.3317077512823153"/><stop offset="1" stop-color="#E0552B" stop-opacity="0"/></linearGradient><linearGradient id="l8" x1="0" y1="0" x2="1" y2="0"><stop offset="0" stop-color="#E0552B" stop-opacity="0"/><stop offset="0.35" stop-color="#E0552B" stop-opacity="0.5941291716928533"/><stop offset="0.7" stop-color="#E0552B" stop-opacity="0.35647750301571196"/><stop offset="1" stop-color="#E0552B" stop-opacity="0"/></linearGradient><linearGradient id="l9" x1="0" y1="0" x2="1" y2="0"><stop offset="0" stop-color="#8C2F14" stop-opacity="0"/><stop offset="0.35" stop-color="#8C2F14" stop-opacity="0.231811515615254"/><stop offset="0.7" stop-color="#8C2F14" stop-opacity="0.1390869093691524"/><stop offset="1" stop-color="#8C2F14" stop-opacity="0"/></linearGradient><linearGradient id="l10" x1="0" y1="0" x2="1" y2="0"><stop offset="0" stop-color="#E0552B" stop-opacity="0"/><stop offset="0.35" stop-color="#E0552B" stop-opacity="0.4324853915309694"/><stop offset="0.7" stop-color="#E0552B" stop-opacity="0.2594912349185816"/><stop offset="1" stop-color="#E0552B" stop-opacity="0"/></linearGradient><linearGradient id="l11" x1="0" y1="0" x2="1" y2="0"><stop offset="0" stop-color="#E0552B" stop-opacity="0"/><stop offset="0.35" stop-color="#E0552B" stop-opacity="0.2517702228552548"/><stop offset="0.7" stop-color="#E0552B" stop-opacity="0.15106213371315289"/><stop offset="1" stop-color="#E0552B" stop-opacity="0"/></linearGradient><linearGradient id="l12" x1="0" y1="0" x2="1" y2="0"><stop offset="0" stop-color="#E0552B" stop-opacity="0"/><stop offset="0.35" stop-color="#E0552B" stop-opacity="0.4347866248847639"/><stop offset="0.7" stop-color="#E0552B" stop-opacity="0.26087197493085834"/><stop offset="1" stop-color="#E0552B" stop-opacity="0"/></linearGradient><linearGradient id="l13" x1="0" y1="0" x2="1" y2="0"><stop offset="0" stop-color="#8C2F14" stop-opacity="0"/><stop offset="0.35" stop-color="#8C2F14" stop-opacity="0.20375287564761024"/><stop offset="0.7" stop-color="#8C2F14" stop-opacity="0.12225172538856614"/><stop offset="1" stop-color="#8C2F14" stop-opacity="0"/></linearGradient><linearGradient id="l14" x1="0" y1="0" x2="1" y2="0"><stop offset="0" stop-color="#8C2F14" stop-opacity="0"/><stop offset="0.35" stop-color="#8C2F14" stop-opacity="0.13994759882411759"/><stop offset="0.7" stop-color="#8C2F14" stop-opacity="0.08396855929447054"/><stop offset="1" stop-color="#8C2F14" stop-opacity="0"/></linearGradient><linearGradient id="l15" x1="0" y1="0" x2="1" y2="0"><stop offset="0" stop-color="#E0552B" stop-opacity="0"/><stop offset="0.35" stop-color="#E0552B" stop-opacity="0.4482791810426027"/><stop offset="0.7" stop-color="#E0552B" stop-opacity="0.2689675086255616"/><stop offset="1" stop-color="#E0552B" stop-opacity="0"/></linearGradient><linearGradient id="l16" x1="0" y1="0" x2="1" y2="0"><stop offset="0" stop-color="#E0552B" stop-opacity="0"/><stop offset="0.35" stop-color="#E0552B" stop-opacity="0.5075274787413816"/><stop offset="0.7" stop-color="#E0552B" stop-opacity="0.30451648724482894"/><stop offset="1" stop-color="#E0552B" stop-opacity="0"/></linearGradient><linearGradient id="l17" x1="0" y1="0" x2="1" y2="0"><stop offset="0" stop-color="#E0552B" stop-opacity="0"/><stop offset="0.35" stop-color="#E0552B" stop-opacity="0.4682718861502939"/><stop offset="0.7" stop-color="#E0552B" stop-opacity="0.28096313169017634"/><stop offset="1" stop-color="#E0552B" stop-opacity="0"/></linearGradient><linearGradient id="l18" x1="0" y1="0" x2="1" y2="0"><stop offset="0" stop-color="#E0552B" stop-opacity="0"/><stop offset="0.35" stop-color="#E0552B" stop-opacity="0.5843719929729747"/><stop offset="0.7" stop-color="#E0552B" stop-opacity="0.3506231957837848"/><stop offset="1" stop-color="#E0552B" stop-opacity="0"/></linearGradient><linearGradient id="l19" x1="0" y1="0" x2="1" y2="0"><stop offset="0" stop-color="#8C2F14" stop-opacity="0"/><stop offset="0.35" stop-color="#8C2F14" stop-opacity="0.1613851887493211"/><stop offset="0.7" stop-color="#8C2F14" stop-opacity="0.09683111324959265"/><stop offset="1" stop-color="#8C2F14" stop-opacity="0"/></linearGradient><linearGradient id="l20" x1="0" y1="0" x2="1" y2="0"><stop offset="0" stop-color="#8C2F14" stop-opacity="0"/><stop offset="0.35" stop-color="#8C2F14" stop-opacity="0.11554598457463539"/><stop offset="0.7" stop-color="#8C2F14" stop-opacity="0.06932759074478123"/><stop offset="1" stop-color="#8C2F14" stop-opacity="0"/></linearGradient><linearGradient id="l21" x1="0" y1="0" x2="1" y2="0"><stop offset="0" stop-color="#E0552B" stop-opacity="0"/><stop offset="0.35" stop-color="#E0552B" stop-opacity="0.2713065333377456"/><stop offset="0.7" stop-color="#E0552B" stop-opacity="0.16278392000264738"/><stop offset="1" stop-color="#E0552B" stop-opacity="0"/></linearGradient><linearGradient id="l22" x1="0" y1="0" x2="1" y2="0"><stop offset="0" stop-color="#E0552B" stop-opacity="0"/><stop offset="0.35" stop-color="#E0552B" stop-opacity="0.3497270875427761"/><stop offset="0.7" stop-color="#E0552B" stop-opacity="0.20983625252566565"/><stop offset="1" stop-color="#E0552B" stop-opacity="0"/></linearGradient><linearGradient id="l23" x1="0" y1="0" x2="1" y2="0"><stop offset="0" stop-color="#8C2F14" stop-opacity="0"/><stop offset="0.35" stop-color="#8C2F14" stop-opacity="0.05278170720815356"/><stop offset="0.7" stop-color="#8C2F14" stop-opacity="0.03166902432489214"/><stop offset="1" stop-color="#8C2F14" stop-opacity="0"/></linearGradient><linearGradient id="l24" x1="0" y1="0" x2="1" y2="0"><stop offset="0" stop-color="#8C2F14" stop-opacity="0"/><stop offset="0.35" stop-color="#8C2F14" stop-opacity="0.08930504708368141"/><stop offset="0.7" stop-color="#8C2F14" stop-opacity="0.053583028250208845"/><stop offset="1" stop-color="#8C2F14" stop-opacity="0"/></linearGradient><linearGradient id="l25" x1="0" y1="0" x2="0" y2="1"><stop offset="0" stop-color="#241F1A" stop-opacity="0"/><stop offset="0.5" stop-color="#241F1A" stop-opacity="0.3"/><stop offset="1" stop-color="#241F1A" stop-opacity="0"/></linearGradient><radialGradient id="r26" cx="0.5" cy="0.48" r="0.8"><stop offset="0.35" stop-color="#0C0A09" stop-opacity="0"/><stop offset="0.72" stop-color="#0C0A09" stop-opacity="0.423"/><stop offset="1" stop-color="#0C0A09" stop-opacity="0.94"/></radialGradient><linearGradient id="l27" x1="0" y1="0" x2="0" y2="1"><stop offset="0" stop-color="#0C0A09" stop-opacity="0.55"/><stop offset="0.22" stop-color="#0C0A09" stop-opacity="0"/><stop offset="0.8" stop-color="#0C0A09" stop-opacity="0"/><stop offset="1" stop-color="#0C0A09" stop-opacity="0.75"/></linearGradient></defs><rect width="1200" height="1500" fill="url(#l1)"/><ellipse cx="456.0" cy="930.0" rx="456.0" ry="510.00000000000006" fill="url(#r2)"/><path d="M497 473 L395 453 L312 415 L240 370 L218 311 L181 255 L192 196" stroke="url(#l3)" stroke-width="1.3" fill="none" stroke-linecap="round"/><path d="M312 415 L243 364" stroke="url(#l3)" stroke-width="1.2" fill="none" stroke-linecap="round"/><path d="M1158 463 L1026 477 L895 494 L787 539 L682 585 L568 624 L439 646" stroke="url(#l4)" stroke-width="2.5" fill="none" stroke-linecap="round"/><path d="M23 149 L-39 149 L-99 141 L-155 126 L-201 103 L-236 75 L-275 48" stroke="url(#l5)" stroke-width="2.3" fill="none" stroke-linecap="round"/><path d="M-236 75 L-298 77" stroke="url(#l5)" stroke-width="1.2" fill="none" stroke-linecap="round"/><path d="M1000 1268 L1066 1281 L1131 1296 L1190 1316 L1254 1332 L1324 1330 L1392 1320" stroke="url(#l6)" stroke-width="1.5" fill="none" stroke-linecap="round"/><path d="M1131 1296 L1188 1320" stroke="url(#l6)" stroke-width="1.2" fill="none" stroke-linecap="round"/><path d="M-19 1336 L116 1299 L256 1269 L407 1273 L557 1263 L703 1284 L853 1292" stroke="url(#l7)" stroke-width="2.0" fill="none" stroke-linecap="round"/><path d="M597 997 L669 956 L697 902 L675 847 L665 790 L696 736 L680 680" stroke="url(#l8)" stroke-width="1.2" fill="none" stroke-linecap="round"/><path d="M1161 480 L1105 493 L1051 507 L990 509 L932 517 L884 537 L853 566" stroke="url(#l9)" stroke-width="2.3" fill="none" stroke-linecap="round"/><path d="M853 566 L794 572" stroke="url(#l9)" stroke-width="1.2" fill="none" stroke-linecap="round"/><path d="M101 268 L213 318 L272 391 L331 464 L316 544 L306 623 L323 703" stroke="url(#l10)" stroke-width="2.2" fill="none" stroke-linecap="round"/><path d="M356 1405 L279 1375 L237 1328 L165 1294 L93 1259 L5 1240 L-64 1204" stroke="url(#l11)" stroke-width="1.8" fill="none" stroke-linecap="round"/><path d="M632 1384 L749 1413 L859 1448 L945 1500 L982 1567 L1026 1633 L1051 1702" stroke="url(#l12)" stroke-width="1.3" fill="none" stroke-linecap="round"/><path d="M749 1413 L857 1453" stroke="url(#l12)" stroke-width="1.2" fill="none" stroke-linecap="round"/><path d="M641 541 L528 599 L413 657 L353 735 L334 820 L337 905 L310 989" stroke="url(#l13)" stroke-width="2.6" fill="none" stroke-linecap="round"/><path d="M528 599 L396 648" stroke="url(#l13)" stroke-width="1.2" fill="none" stroke-linecap="round"/><path d="M828 878 L969 900 L1116 899 L1252 871 L1394 850 L1540 851 L1673 817" stroke="url(#l14)" stroke-width="2.5" fill="none" stroke-linecap="round"/><path d="M969 900 L1015 817" stroke="url(#l14)" stroke-width="1.2" fill="none" stroke-linecap="round"/><path d="M204 272 L288 271 L367 287 L419 323 L468 361 L508 402 L531 446" stroke="url(#l15)" stroke-width="1.9" fill="none" stroke-linecap="round"/><path d="M439 506 L329 461 L205 428 L96 383 L-37 363 L-150 321 L-217 255" stroke="url(#l16)" stroke-width="1.3" fill="none" stroke-linecap="round"/><path d="M-150 321 L-287 314" stroke="url(#l16)" stroke-width="1.2" fill="none" stroke-linecap="round"/><path d="M244 1212 L138 1201 L36 1221 L-60 1249 L-168 1255 L-274 1267 L-366 1298" stroke="url(#l17)" stroke-width="1.9" fill="none" stroke-linecap="round"/><path d="M392 1163 L503 1115 L565 1045 L599 970 L689 910 L731 835 L786 764" stroke="url(#l18)" stroke-width="2.0" fill="none" stroke-linecap="round"/><path d="M689 910 L811 867" stroke="url(#l18)" stroke-width="1.2" fill="none" stroke-linecap="round"/><path d="M924 674 L842 667 L768 646 L689 633 L608 642 L528 632 L448 621" stroke="url(#l19)" stroke-width="2.5" fill="none" stroke-linecap="round"/><path d="M573 892 L498 861 L443 819 L367 788 L299 752 L250 708 L239 657" stroke="url(#l20)" stroke-width="1.1" fill="none" stroke-linecap="round"/><path d="M1131 358 L1253 405 L1350 468 L1439 533 L1575 567 L1720 586 L1869 579" stroke="url(#l21)" stroke-width="1.8" fill="none" stroke-linecap="round"/><path d="M848 1071 L786 1085 L739 1112 L710 1145 L663 1172 L628 1203 L611 1239" stroke="url(#l22)" stroke-width="1.0" fill="none" stroke-linecap="round"/><path d="M628 1203 L574 1228" stroke="url(#l22)" stroke-width="1.2" fill="none" stroke-linecap="round"/><path d="M442 1287 L525 1297 L609 1286 L692 1296 L761 1324 L820 1358 L865 1398" stroke="url(#l23)" stroke-width="1.0" fill="none" stroke-linecap="round"/><path d="M339 1344 L246 1341 L156 1354 L63 1354 L-20 1331 L-107 1312 L-196 1296" stroke="url(#l24)" stroke-width="1.6" fill="none" stroke-linecap="round"/><rect y="194.99999999999997" width="1200" height="510.00000000000006" fill="url(#l25)"/><rect width="1200" height="1500" fill="url(#r26)"/><rect width="1200" height="1500" fill="url(#l27)"/></svg>