<svg xmlns="http://www.w3.org/2000/svg" viewBox="0 0 1200 800" width="1200" height="800" preserveAspectRatio="xMidYMid slice" role="img" aria-label="Жар в момент подачи"><title>Жар в момент подачи</title><defs><linearGradient id="l1" x1="0" y1="0" x2="0" y2="1"><stop offset="0" stop-color="#241F1A" stop-opacity="1"/><stop offset="1" stop-color="#0C0A09" stop-opacity="1"/></linearGradient><radialGradient id="r2" cx="0.5" cy="0.5" r="0.5"><stop offset="0" stop-color="#E0552B" stop-opacity="0.42"/><stop offset="0.45" stop-color="#E0552B" stop-opacity="0.147"/><stop offset="1" stop-color="#E0552B" stop-opacity="0"/></radialGradient><radialGradient id="r3" cx="0.5" cy="0.5" r="0.5"><stop offset="0" stop-color="#D4A03C" stop-opacity="0.16"/><stop offset="0.45" stop-color="#D4A03C" stop-opacity="0.055999999999999994"/><stop offset="1" stop-color="#D4A03C" stop-opacity="0"/></radialGradient><linearGradient id="l4" x1="0" y1="0" x2="1" y2="0"><stop offset="0" stop-color="#E0552B" stop-opacity="0"/><stop offset="0.35" stop-color="#E0552B" stop-opacity="0.40084912757568686"/><stop offset="0.7" stop-color="#E0552B" stop-opacity="0.2405094765454121"/><stop offset="1" stop-color="#E0552B" stop-opacity="0"/></linearGradient><linearGradient id="l5" x1="0" y1="0" x2="1" y2="0"><stop offset="0" stop-color="#8C2F14" stop-opacity="0"/><stop offset="0.35" stop-color="#8C2F14" stop-opacity="0.02425081975007833"/><stop offset="0.7" stop-color="#8C2F14" stop-opacity="0.014550491850046997"/><stop offset="1" stop-color="#8C2F14" stop-opacity="0"/></linearGradient><linearGradient id="l6" x1="0" y1="0" x2="1" y2="0"><stop offset="0" stop-color="#E0552B" stop-opacity="0"/><stop offset="0.35" stop-color="#E0552B" stop-opacity="0.3105618539788737"/><stop offset="0.7" stop-color="#E0552B" stop-opacity="0.18633711238732423"/><stop offset="1" stop-color="#E0552B" stop-opacity="0"/></linearGradient><linearGradient id="l7" x1="0" y1="0" x2="1" y2="0"><stop offset="0" stop-color="#E0552B" stop-opacity="0"/><stop offset="0.35" stop-color="#E0552B" stop-opacity="0.5450106245901648"/><stop offset="0.7" stop-color="#E0552B" stop-opacity="0.3270063747540989"/><stop offset="1" stop-color="#E0552B" stop-opacity="0"/></linearGradient><linearGradient id="l8" x1="0" y1="0" x2="1" y2="0"><stop offset="0" stop-color="#E0552B" stop-opacity="0"/><stop offset="0.35" stop-color="#E0552B" stop-opacity="0.4046114769134995"/><stop offset="0.7" stop-color="#E0552B" stop-opacity="0.24276688614809971"/><stop offset="1" stop-color="#E0552B" stop-opacity="0"/></linearGradient><linearGradient id="l9" x1="0" y1="0" x2="1" y2="0"><stop offset="0" stop-color="#E0552B" stop-opacity="0"/><stop offset="0.35" stop-color="#E0552B" stop-opacity="0.3993765944553989"/><stop offset="0.7" stop-color="#E0552B" stop-opacity="0.23962595667323933"/><stop offset="1" stop-color="#E0552B" stop-opacity="0"/></linearGradient><linearGradient id="l10" x1="0" y1="0" x2="1" y2="0"><stop offset="0" stop-color="#8C2F14" stop-opacity="0"/><stop offset="0.35" stop-color="#8C2F14" stop-opacity="0.14375298343697993"/><stop offset="0.7" stop-color="#8C2F14" stop-opacity="0.08625179006218796"/><stop offset="1" stop-color="#8C2F14" stop-opacity="0"/></linearGradient><linearGradient id="l11" x1="0" y1="0" x2="1" y2="0"><stop offset="0" stop-color="#E0552B" stop-opacity="0"/><stop offset="0.35" stop-color="#E0552B" stop-opacity="0.25168244622313357"/><stop offset="0.7" stop-color="#E0552B" stop-opacity="0.15100946773388013"/><stop offset="1" stop-color="#E0552B" stop-opacity="0"/></linearGradient><linearGradient id="l12" x1="0" y1="0" x2="1" y2="0"><stop offset="0" stop-color="#8C2F14" stop-opacity="0"/><stop offset="0.35" stop-color="#8C2F14" stop-opacity="0.13470942460482824"/><stop offset="0.7" stop-color="#8C2F14" stop-opacity="0.08082565476289694"/><stop offset="1" stop-color="#8C2F14" stop-opacity="0"/></linearGradient><linearGradient id="l13" x1="0" y1="0" x2="1" y2="0"><stop offset="0" stop-color="#E0552B" stop-opacity="0"/><stop offset="0.35" stop-color="#E0552B" stop-opacity="0.46274581887584637"/><stop offset="0.7" stop-color="#E0552B" stop-opacity="0.2776474913255078"/><stop offset="1" stop-color="#E0552B" stop-opacity="0"/></linearGradient><linearGradient id="l14" x1="0" y1="0" x2="1" y2="0"><stop offset="0" stop-color="#E0552B" stop-opacity="0"/><stop offset="0.35" stop-color="#E0552B" stop-opacity="0.40743738252121553"/><stop offset="0.7" stop-color="#E0552B" stop-opacity="0.2444624295127293"/><stop offset="1" stop-color="#E0552B" stop-opacity="0"/></linearGradient><linearGradient id="l15" x1="0" y1="0" x2="1" y2="0"><stop offset="0" stop-color="#E0552B" stop-opacity="0"/><stop offset="0.35" stop-color="#E0552B" stop-opacity="0.30395414422237155"/><stop offset="0.7" stop-color="#E0552B" stop-opacity="0.18237248653342292"/><stop offset="1" stop-color="#E0552B" stop-opacity="0"/></linearGradient><linearGradient id="l16" x1="0" y1="0" x2="1" y2="0"><stop offset="0" stop-color="#E0552B" stop-opacity="0"/><stop offset="0.35" stop-color="#E0552B" stop-opacity="0.25390971297228715"/><stop offset="0.7" stop-color="#E0552B" stop-opacity="0.15234582778337227"/><stop offset="1" stop-color="#E0552B" stop-opacity="0"/></linearGradient><linearGradient id="l17" x1="0" y1="0" x2="1" y2="0"><stop offset="0" stop-color="#8C2F14" stop-opacity="0"/><stop offset="0.35" stop-color="#8C2F14" stop-opacity="0.1997458069408209"/><stop offset="0.7" stop-color="#8C2F14" stop-opacity="0.11984748416449253"/><stop offset="1" stop-color="#8C2F14" stop-opacity="0"/></linearGradient><linearGradient id="l18" x1="0" y1="0" x2="1" y2="0"><stop offset="0" stop-color="#E0552B" stop-opacity="0"/><stop offset="0.35" stop-color="#E0552B" stop-opacity="0.5490190400090481"/><stop offset="0.7" stop-color="#E0552B" stop-opacity="0.32941142400542883"/><stop offset="1" stop-color="#E0552B" stop-opacity="0"/></linearGradient><linearGradient id="l19" x1="0" y1="0" x2="1" y2="0"><stop offset="0" stop-color="#8C2F14" stop-opacity="0"/><stop offset="0.35" stop-color="#8C2F14" stop-opacity="0.04746000439304128"/><stop offset="0.7" stop-color="#8C2F14" stop-opacity="0.028476002635824768"/><stop offset="1" stop-color="#8C2F14" stop-opacity="0"/></linearGradient><radialGradient id="r20" cx="0.5" cy="0.5" r="0.5"><stop offset="0" stop-color="#241F1A" stop-opacity="0.4013323895501665"/><stop offset="0.45" stop-color="#241F1A" stop-opacity="0.14046633634255826"/><stop offset="1" stop-color="#241F1A" stop-opacity="0"/></radialGradient><radialGradient id="r21" cx="0.5" cy="0.5" r="0.5"><stop offset="0" stop-color="#241F1A" stop-opacity="0.39022764694877865"/><stop offset="0.45" stop-color="#241F1A" stop-opacity="0.13657967643207253"/><stop offset="1" stop-color="#241F1A" stop-opacity="0"/></radialGradient><radialGradient id="r22" cx="0.5" cy="0.5" r="0.5"><stop offset="0" stop-color="#241F1A" stop-opacity="0.4269810438694984"/><stop offset="0.45" stop-color="#241F1A" stop-opacity="0.14944336535432443"/><stop offset="1" stop-color="#241F1A" stop-opacity="0"/></radialGradient><radialGradient id="r23" cx="0.5" cy="0.5" r="0.5"><stop offset="0" stop-color="#241F1A" stop-opacity="0.3545221207955515"/><stop offset="0.45" stop-color="#241F1A" stop-opacity="0.12408274227844301"/><stop offset="1" stop-color="#241F1A" stop-opacity="0"/></radialGradient><radialGradient id="r24" cx="0.5" cy="0.48" r="0.8"><stop offset="0.35" stop-color="#0C0A09" stop-opacity="0"/><stop offset="0.72" stop-color="#0C0A09" stop-opacity="0.423"/><stop offset="1" stop-color="#0C0A09" stop-opacity="0.94"/></radialGradient><linearGradient id="l25" x1="0" y1="0" x2="0" y2="1"><stop offset="0" stop-color="#0C0A09" stop-opacity="0.55"/><stop offset="0.22" stop-color="#0C0A09" stop-opacity="0"/><stop offset="0.8" stop-color="#0C0A09" stop-opacity="0"/><stop offset="1" stop-color="#0C0A09" stop-opacity="0.75"/></linearGradient></defs><rect width="1200" height="800" fill="url(#l1)"/><ellipse cx="552.0" cy="416.0" rx="528.0" ry="336.0" fill="url(#r2)"/><ellipse cx="720.0" cy="272.0" rx="264.0" ry="144.0" fill="url(#r3)"/><path d="M961 189 L828 218 L701 254 L577 294 L449 329 L335 377" stroke="url(#l4)" stroke-width="1.2" fill="none" stroke-linecap="round"/><path d="M335 377 L291 459" stroke="url(#l4)" stroke-width="1.2" fill="none" stroke-linecap="round"/><path d="M121 515 L34 495 L-52 472 L-125 439 L-220 432 L-311 445" stroke="url(#l5)" stroke-width="2.2" fill="none" stroke-linecap="round"/><path d="M34 495 L-25 540" stroke="url(#l5)" stroke-width="1.2" fill="none" stroke-linecap="round"/><path d="M1049 635 L1186 621 L1318 596 L1438 557 L1576 545 L1710 522" stroke="url(#l6)" stroke-width="1.1" fill="none" stroke-linecap="round"/><path d="M597 357 L491 390 L407 438 L308 477 L203 510 L107 551" stroke="url(#l7)" stroke-width="1.4" fill="none" stroke-linecap="round"/><path d="M1125 614 L1261 574 L1395 533 L1544 513 L1697 518 L1850 508" stroke="url(#l8)" stroke-width="1.5" fill="none" stroke-linecap="round"/><path d="M744 589 L665 586 L586 582 L508 587 L445 613 L397 648" stroke="url(#l9)" stroke-width="2.5" fill="none" stroke-linecap="round"/><path d="M672 247 L606 232 L534 227 L463 221 L392 225 L320 228" stroke="url(#l10)" stroke-width="2.0" fill="none" stroke-linecap="round"/><path d="M649 222 L549 252 L454 287 L339 290 L227 278 L113 279" stroke="url(#l11)" stroke-width="1.3" fill="none" stroke-linecap="round"/><path d="M1095 188 L1012 218 L925 244 L828 252 L739 277 L660 309" stroke="url(#l12)" stroke-width="2.1" fill="none" stroke-linecap="round"/><path d="M660 309 L561 307" stroke="url(#l12)" stroke-width="1.2" fill="none" stroke-linecap="round"/><path d="M942 163 L860 233 L753 292 L631 341 L562 415 L525 495" stroke="url(#l13)" stroke-width="1.6" fill="none" stroke-linecap="round"/><path d="M860 233 L949 306" stroke="url(#l13)" stroke-width="1.2" fill="none" stroke-linecap="round"/><path d="M828 336 L695 317 L581 275 L481 223 L377 174 L242 161" stroke="url(#l14)" stroke-width="2.4" fill="none" stroke-linecap="round"/><path d="M695 317 L598 259" stroke="url(#l14)" stroke-width="1.2" fill="none" stroke-linecap="round"/><path d="M621 614 L562 621 L503 627 L453 646 L396 657 L336 660" stroke="url(#l15)" stroke-width="2.5" fill="none" stroke-linecap="round"/><path d="M562 621 L518 596" stroke="url(#l15)" stroke-width="1.2" fill="none" stroke-linecap="round"/><path d="M252 461 L382 504 L533 511 L681 491 L810 447 L960 435" stroke="url(#l16)" stroke-width="2.3" fill="none" stroke-linecap="round"/><path d="M382 504 L460 583" stroke="url(#l16)" stroke-width="1.2" fill="none" stroke-linecap="round"/><path d="M1055 492 L957 464 L846 462 L742 440 L632 437 L527 417" stroke="url(#l17)" stroke-width="2.3" fill="none" stroke-linecap="round"/><path d="M586 200 L528 226 L461 245 L389 258 L329 283 L263 303" stroke="url(#l18)" stroke-width="2.4" fill="none" stroke-linecap="round"/><path d="M1136 560 L1251 536 L1371 521 L1482 493 L1601 475 L1720 460" stroke="url(#l19)" stroke-width="2.6" fill="none" stroke-linecap="round"/><path d="M1601 475 L1684 530" stroke="url(#l19)" stroke-width="1.2" fill="none" stroke-linecap="round"/><ellipse cx="685.3695510410131" cy="281.1160667545964" rx="398.8525779213943" ry="213.82664649997298" fill="url(#r20)"/><ellipse cx="711.5160270711303" cy="228.1378113684892" rx="358.2304274674072" ry="165.26159158966857" fill="url(#r21)"/><ellipse cx="855.3093852922713" cy="222.72683354381843" rx="313.1824708048781" ry="111.73737680721091" fill="url(#r22)"/><ellipse cx="807.0676504830832" cy="191.6344974138301" rx="270.9664326702193" ry="147.74249170659078" fill="url(#r23)"/><rect width="1200" height="800" fill="url(#r24)"/><rect width="1200" height="800" fill="url(#l25)"/></svg>