<svg xmlns="http://www.w3.org/2000/svg" viewBox="0 0 1200 900" width="1200" height="900" preserveAspectRatio="xMidYMid slice" role="img" aria-label="Винный погреб: кирпичные арки и 450 позиций карты"><title>Винный погреб: кирпичные арки и 450 позиций карты</title><defs><linearGradient id="l1" x1="0" y1="0" x2="0" y2="1"><stop offset="0" stop-color="#16130F" stop-opacity="1"/><stop offset="1" stop-color="#0C0A09" stop-opacity="1"/></linearGradient><linearGradient id="l2" x1="0" y1="0" x2="0" y2="1"><stop offset="0" stop-color="#16130F" stop-opacity="1"/><stop offset="1" stop-color="#0C0A09" stop-opacity="1"/></linearGradient><linearGradient id="l3" x1="0" y1="0" x2="0" y2="1"><stop offset="0" stop-color="#D4A03C" stop-opacity="0.28"/><stop offset="1" stop-color="#D4A03C" stop-opacity="0.04"/></linearGradient><linearGradient id="l4" x1="0" y1="0" x2="0" y2="1"><stop offset="0" stop-color="#16130F" stop-opacity="1"/><stop offset="1" stop-color="#0C0A09" stop-opacity="1"/></linearGradient><linearGradient id="l5" x1="0" y1="0" x2="0" y2="1"><stop offset="0" stop-color="#D4A03C" stop-opacity="0.28"/><stop offset="1" stop-color="#D4A03C" stop-opacity="0.04"/></linearGradient><linearGradient id="l6" x1="0" y1="0" x2="0" y2="1"><stop offset="0" stop-color="#16130F" stop-opacity="1"/><stop offset="1" stop-color="#0C0A09" stop-opacity="1"/></linearGradient><linearGradient id="l7" x1="0" y1="0" x2="0" y2="1"><stop offset="0" stop-color="#D4A03C" stop-opacity="0.28"/><stop offset="1" stop-color="#D4A03C" stop-opacity="0.04"/></linearGradient><radialGradient id="r8" cx="0.5" cy="0.5" r="0.5"><stop offset="0" stop-color="#D4A03C" stop-opacity="0.3"/><stop offset="0.45" stop-color="#D4A03C" stop-opacity="0.105"/><stop offset="1" stop-color="#D4A03C" stop-opacity="0"/></radialGradient><radialGradient id="r9" cx="0.5" cy="0.5" r="0.5"><stop offset="0" stop-color="#F5F1EA" stop-opacity="0.95"/><stop offset="0.55" stop-color="#D4A03C" stop-opacity="0.85"/><stop offset="1" stop-color="#A16207" stop-opacity="0.1"/></radialGradient><linearGradient id="l10" x1="0" y1="0" x2="0" y2="1"><stop offset="0" stop-color="#241F1A" stop-opacity="0"/><stop offset="0.5" stop-color="#241F1A" stop-opacity="0.35"/><stop offset="1" stop-color="#241F1A" stop-opacity="0"/></linearGradient><radialGradient id="r11" cx="0.5" cy="0.48" r="0.8"><stop offset="0.35" stop-color="#0C0A09" stop-opacity="0"/><stop offset="0.72" stop-color="#0C0A09" stop-opacity="0.423"/><stop offset="1" stop-color="#0C0A09" stop-opacity="0.94"/></radialGradient><linearGradient id="l12" x1="0" y1="0" x2="0" y2="1"><stop offset="0" stop-color="#0C0A09" stop-opacity="0.55"/><stop offset="0.22" stop-color="#0C0A09" stop-opacity="0"/><stop offset="0.8" stop-color="#0C0A09" stop-opacity="0"/><stop offset="1" stop-color="#0C0A09" stop-opacity="0.75"/></linearGradient></defs><rect width="1200" height="900" fill="url(#l1)"/><path d="M40 792 L40 286 A160 160 0 0 1 360 286 L360 792 Z" fill="url(#l2)"/><path d="M40 792 L40 286 A160 160 0 0 1 360 286 L360 792" fill="none" stroke="url(#l3)" stroke-width="2"/><circle cx="63" cy="361" r="11.9" fill="#D4A03C" opacity="0.30"/><circle cx="109" cy="361" r="11.9" fill="#D4A03C" opacity="0.33"/><circle cx="154" cy="361" r="11.9" fill="#D4A03C" opacity="0.23"/><circle cx="200" cy="361" r="11.9" fill="#D4A03C" opacity="0.31"/><circle cx="246" cy="361" r="11.9" fill="#D4A03C" opacity="0.30"/><circle cx="291" cy="361" r="11.9" fill="#D4A03C" opacity="0.37"/><circle cx="337" cy="361" r="11.9" fill="#D4A03C" opacity="0.12"/><circle cx="63" cy="435" r="11.9" fill="#D4A03C" opacity="0.36"/><circle cx="109" cy="435" r="11.9" fill="#D4A03C" opacity="0.39"/><circle cx="154" cy="435" r="11.9" fill="#D4A03C" opacity="0.20"/><circle cx="200" cy="435" r="11.9" fill="#D4A03C" opacity="0.27"/><circle cx="246" cy="435" r="11.9" fill="#D4A03C" opacity="0.22"/><circle cx="291" cy="435" r="11.9" fill="#D4A03C" opacity="0.14"/><circle cx="337" cy="435" r="11.9" fill="#D4A03C" opacity="0.19"/><circle cx="63" cy="509" r="11.9" fill="#D4A03C" opacity="0.37"/><circle cx="109" cy="509" r="11.9" fill="#D4A03C" opacity="0.30"/><circle cx="154" cy="509" r="11.9" fill="#D4A03C" opacity="0.25"/><circle cx="200" cy="509" r="11.9" fill="#D4A03C" opacity="0.22"/><circle cx="246" cy="509" r="11.9" fill="#D4A03C" opacity="0.36"/><circle cx="291" cy="509" r="11.9" fill="#D4A03C" opacity="0.20"/><circle cx="337" cy="509" r="11.9" fill="#D4A03C" opacity="0.13"/><circle cx="63" cy="582" r="11.9" fill="#D4A03C" opacity="0.12"/><circle cx="109" cy="582" r="11.9" fill="#D4A03C" opacity="0.15"/><circle cx="154" cy="582" r="11.9" fill="#D4A03C" opacity="0.29"/><circle cx="200" cy="582" r="11.9" fill="#D4A03C" opacity="0.30"/><circle cx="246" cy="582" r="11.9" fill="#D4A03C" opacity="0.12"/><circle cx="291" cy="582" r="11.9" fill="#D4A03C" opacity="0.38"/><circle cx="337" cy="582" r="11.9" fill="#D4A03C" opacity="0.39"/><circle cx="63" cy="656" r="11.9" fill="#D4A03C" opacity="0.16"/><circle cx="109" cy="656" r="11.9" fill="#D4A03C" opacity="0.18"/><circle cx="154" cy="656" r="11.9" fill="#D4A03C" opacity="0.22"/><circle cx="200" cy="656" r="11.9" fill="#D4A03C" opacity="0.20"/><circle cx="246" cy="656" r="11.9" fill="#D4A03C" opacity="0.31"/><circle cx="291" cy="656" r="11.9" fill="#D4A03C" opacity="0.15"/><circle cx="337" cy="656" r="11.9" fill="#D4A03C" opacity="0.18"/><circle cx="63" cy="730" r="11.9" fill="#D4A03C" opacity="0.18"/><circle cx="109" cy="730" r="11.9" fill="#D4A03C" opacity="0.19"/><circle cx="154" cy="730" r="11.9" fill="#D4A03C" opacity="0.13"/><circle cx="200" cy="730" r="11.9" fill="#D4A03C" opacity="0.18"/><circle cx="246" cy="730" r="11.9" fill="#D4A03C" opacity="0.17"/><circle cx="291" cy="730" r="11.9" fill="#D4A03C" opacity="0.32"/><circle cx="337" cy="730" r="11.9" fill="#D4A03C" opacity="0.27"/><path d="M440 792 L440 286 A160 160 0 0 1 760 286 L760 792 Z" fill="url(#l4)"/><path d="M440 792 L440 286 A160 160 0 0 1 760 286 L760 792" fill="none" stroke="url(#l5)" stroke-width="2"/><circle cx="463" cy="361" r="11.9" fill="#D4A03C" opacity="0.14"/><circle cx="509" cy="361" r="11.9" fill="#D4A03C" opacity="0.28"/><circle cx="554" cy="361" r="11.9" fill="#D4A03C" opacity="0.33"/><circle cx="600" cy="361" r="11.9" fill="#D4A03C" opacity="0.28"/><circle cx="646" cy="361" r="11.9" fill="#D4A03C" opacity="0.29"/><circle cx="691" cy="361" r="11.9" fill="#D4A03C" opacity="0.38"/><circle cx="737" cy="361" r="11.9" fill="#D4A03C" opacity="0.11"/><circle cx="463" cy="435" r="11.9" fill="#D4A03C" opacity="0.27"/><circle cx="509" cy="435" r="11.9" fill="#D4A03C" opacity="0.32"/><circle cx="554" cy="435" r="11.9" fill="#D4A03C" opacity="0.24"/><circle cx="600" cy="435" r="11.9" fill="#D4A03C" opacity="0.22"/><circle cx="646" cy="435" r="11.9" fill="#D4A03C" opacity="0.28"/><circle cx="691" cy="435" r="11.9" fill="#D4A03C" opacity="0.23"/><circle cx="737" cy="435" r="11.9" fill="#D4A03C" opacity="0.19"/><circle cx="463" cy="509" r="11.9" fill="#D4A03C" opacity="0.30"/><circle cx="509" cy="509" r="11.9" fill="#D4A03C" opacity="0.39"/><circle cx="554" cy="509" r="11.9" fill="#D4A03C" opacity="0.38"/><circle cx="600" cy="509" r="11.9" fill="#D4A03C" opacity="0.19"/><circle cx="646" cy="509" r="11.9" fill="#D4A03C" opacity="0.27"/><circle cx="691" cy="509" r="11.9" fill="#D4A03C" opacity="0.14"/><circle cx="737" cy="509" r="11.9" fill="#D4A03C" opacity="0.27"/><circle cx="463" cy="582" r="11.9" fill="#D4A03C" opacity="0.12"/><circle cx="509" cy="582" r="11.9" fill="#D4A03C" opacity="0.36"/><circle cx="554" cy="582" r="11.9" fill="#D4A03C" opacity="0.31"/><circle cx="600" cy="582" r="11.9" fill="#D4A03C" opacity="0.36"/><circle cx="646" cy="582" r="11.9" fill="#D4A03C" opacity="0.33"/><circle cx="691" cy="582" r="11.9" fill="#D4A03C" opacity="0.36"/><circle cx="737" cy="582" r="11.9" fill="#D4A03C" opacity="0.14"/><circle cx="463" cy="656" r="11.9" fill="#D4A03C" opacity="0.34"/><circle cx="509" cy="656" r="11.9" fill="#D4A03C" opacity="0.21"/><circle cx="554" cy="656" r="11.9" fill="#D4A03C" opacity="0.40"/><circle cx="600" cy="656" r="11.9" fill="#D4A03C" opacity="0.24"/><circle cx="646" cy="656" r="11.9" fill="#D4A03C" opacity="0.13"/><circle cx="691" cy="656" r="11.9" fill="#D4A03C" opacity="0.28"/><circle cx="737" cy="656" r="11.9" fill="#D4A03C" opacity="0.24"/><circle cx="463" cy="730" r="11.9" fill="#D4A03C" opacity="0.22"/><circle cx="509" cy="730" r="11.9" fill="#D4A03C" opacity="0.34"/><circle cx="554" cy="730" r="11.9" fill="#D4A03C" opacity="0.29"/><circle cx="600" cy="730" r="11.9" fill="#D4A03C" opacity="0.12"/><circle cx="646" cy="730" r="11.9" fill="#D4A03C" opacity="0.22"/><circle cx="691" cy="730" r="11.9" fill="#D4A03C" opacity="0.37"/><circle cx="737" cy="730" r="11.9" fill="#D4A03C" opacity="0.38"/><path d="M840 792 L840 286 A160 160 0 0 1 1160 286 L1160 792 Z" fill="url(#l6)"/><path d="M840 792 L840 286 A160 160 0 0 1 1160 286 L1160 792" fill="none" stroke="url(#l7)" stroke-width="2"/><circle cx="863" cy="361" r="11.9" fill="#D4A03C" opacity="0.17"/><circle cx="909" cy="361" r="11.9" fill="#D4A03C" opacity="0.28"/><circle cx="954" cy="361" r="11.9" fill="#D4A03C" opacity="0.39"/><circle cx="1000" cy="361" r="11.9" fill="#D4A03C" opacity="0.38"/><circle cx="1046" cy="361" r="11.9" fill="#D4A03C" opacity="0.19"/><circle cx="1091" cy="361" r="11.9" fill="#D4A03C" opacity="0.35"/><circle cx="1137" cy="361" r="11.9" fill="#D4A03C" opacity="0.19"/><circle cx="863" cy="435" r="11.9" fill="#D4A03C" opacity="0.26"/><circle cx="909" cy="435" r="11.9" fill="#D4A03C" opacity="0.14"/><circle cx="954" cy="435" r="11.9" fill="#D4A03C" opacity="0.22"/><circle cx="1000" cy="435" r="11.9" fill="#D4A03C" opacity="0.25"/><circle cx="1046" cy="435" r="11.9" fill="#D4A03C" opacity="0.25"/><circle cx="1091" cy="435" r="11.9" fill="#D4A03C" opacity="0.13"/><circle cx="1137" cy="435" r="11.9" fill="#D4A03C" opacity="0.18"/><circle cx="863" cy="509" r="11.9" fill="#D4A03C" opacity="0.35"/><circle cx="909" cy="509" r="11.9" fill="#D4A03C" opacity="0.24"/><circle cx="954" cy="509" r="11.9" fill="#D4A03C" opacity="0.30"/><circle cx="1000" cy="509" r="11.9" fill="#D4A03C" opacity="0.20"/><circle cx="1046" cy="509" r="11.9" fill="#D4A03C" opacity="0.40"/><circle cx="1091" cy="509" r="11.9" fill="#D4A03C" opacity="0.19"/><circle cx="1137" cy="509" r="11.9" fill="#D4A03C" opacity="0.37"/><circle cx="863" cy="582" r="11.9" fill="#D4A03C" opacity="0.38"/><circle cx="909" cy="582" r="11.9" fill="#D4A03C" opacity="0.27"/><circle cx="954" cy="582" r="11.9" fill="#D4A03C" opacity="0.31"/><circle cx="1000" cy="582" r="11.9" fill="#D4A03C" opacity="0.15"/><circle cx="1046" cy="582" r="11.9" fill="#D4A03C" opacity="0.31"/><circle cx="1091" cy="582" r="11.9" fill="#D4A03C" opacity="0.29"/><circle cx="1137" cy="582" r="11.9" fill="#D4A03C" opacity="0.17"/><circle cx="863" cy="656" r="11.9" fill="#D4A03C" opacity="0.22"/><circle cx="909" cy="656" r="11.9" fill="#D4A03C" opacity="0.36"/><circle cx="954" cy="656" r="11.9" fill="#D4A03C" opacity="0.20"/><circle cx="1000" cy="656" r="11.9" fill="#D4A03C" opacity="0.34"/><circle cx="1046" cy="656" r="11.9" fill="#D4A03C" opacity="0.23"/><circle cx="1091" cy="656" r="11.9" fill="#D4A03C" opacity="0.21"/><circle cx="1137" cy="656" r="11.9" fill="#D4A03C" opacity="0.19"/><circle cx="863" cy="730" r="11.9" fill="#D4A03C" opacity="0.11"/><circle cx="909" cy="730" r="11.9" fill="#D4A03C" opacity="0.30"/><circle cx="954" cy="730" r="11.9" fill="#D4A03C" opacity="0.21"/><circle cx="1000" cy="730" r="11.9" fill="#D4A03C" opacity="0.12"/><circle cx="1046" cy="730" r="11.9" fill="#D4A03C" opacity="0.13"/><circle cx="1091" cy="730" r="11.9" fill="#D4A03C" opacity="0.33"/><circle cx="1137" cy="730" r="11.9" fill="#D4A03C" opacity="0.17"/><ellipse cx="600.0" cy="105.4" rx="306.0" ry="306.0" fill="url(#r8)"/><rect x="599" y="0" width="1.4" height="83.0" fill="#3A332C" opacity=".55"/><circle cx="600.0" cy="90.0" r="7" fill="url(#r9)"/><rect y="594.0" width="1200" height="252.00000000000003" fill="url(#l10)"/><rect width="1200" height="900" fill="url(#r11)"/><rect width="1200" height="900" fill="url(#l12)"/></svg>